{
  "accessors": [
    {
      "bufferView": 2,
      "componentType": 5126,
      "count": 860,
      "max": [
        0.013066496700048447,
        0.15605729818344116,
        0.013066498562693596
      ],
      "min": [
        -0.013066496700048447,
        -0.26691016554832458,
        -0.013066499494016171
      ],
      "type": "VEC3"
    },
    {
      "bufferView": 2,
      "byteOffset": 10320,
      "componentType": 5126,
      "count": 860,
      "max": [
        1,
        1,
        1
      ],
      "min": [
        -1,
        -1,
        -1
      ],
      "type": "VEC3"
    },
    {
      "bufferView": 3,
      "componentType": 5126,
      "count": 860,
      "max": [
        1,
        1,
        1,
        1
      ],
      "min": [
        -1,
        -0.99864286184310913,
        -1,
        1
      ],
      "type": "VEC4"
    },
    {
      "bufferView": 1,
      "componentType": 5126,
      "count": 860,
      "max": [
        0.98150348663330078,
        0.75176399946212769
      ],
      "min": [
        0.0094918180257081985,
        0.012055888772010803
      ],
      "type": "VEC2"
    },
    {
      "bufferView": 1,
      "byteOffset": 6880,
      "componentType": 5126,
      "count": 860,
      "max": [
        0.98150348663330078,
        0.75176399946212769
      ],
      "min": [
        0.0094918180257081985,
        0.012055888772010803
      ],
      "type": "VEC2"
    },
    {
      "bufferView": 1,
      "byteOffset": 13760,
      "componentType": 5126,
      "count": 860,
      "max": [
        0.98150348663330078,
        0.75176399946212769
      ],
      "min": [
        0.0094918180257081985,
        0.012055888772010803
      ],
      "type": "VEC2"
    },
    {
      "bufferView": 1,
      "byteOffset": 20640,
      "componentType": 5126,
      "count": 860,
      "max": [
        0.98150348663330078,
        0.75176399946212769
      ],
      "min": [
        0.0094918180257081985,
        0.012055888772010803
      ],
      "type": "VEC2"
    },
    {
      "bufferView": 0,
      "componentType": 5125,
      "count": 4032,
      "max": [
        859
      ],
      "min": [
        0
      ],
      "type": "SCALAR"
    },
    {
      "bufferView": 2,
      "byteOffset": 20640,
      "componentType": 5126,
      "count": 422,
      "max": [
        0.08999999612569809,
        0.035635899752378464,
        0.08999999612569809
      ],
      "min": [
        -0.08999999612569809,
        -0.010168956592679024,
        -0.08999999612569809
      ],
      "type": "VEC3"
    },
    {
      "bufferView": 2,
      "byteOffset": 25704,
      "componentType": 5126,
      "count": 422,
      "max": [
        1,
        0,
        1
      ],
      "min": [
        -1,
        -1,
        -1
      ],
      "type": "VEC3"
    },
    {
      "bufferView": 3,
      "byteOffset": 13760,
      "componentType": 5126,
      "count": 422,
      "max": [
        1,
        0.92629486322402954,
        1,
        1
      ],
      "min": [
        -1,
        -0.92629486322402954,
        -1,
        1
      ],
      "type": "VEC4"
    },
    {
      "bufferView": 1,
      "byteOffset": 27520,
      "componentType": 5126,
      "count": 422,
      "max": [
        0.96593266725540161,
        0.62022924423217773
      ],
      "min": [
        0.0098343491554260254,
        0.19786345958709717
      ],
      "type": "VEC2"
    },
    {
      "bufferView": 1,
      "byteOffset": 30896,
      "componentType": 5126,
      "count": 422,
      "max": [
        0.96593266725540161,
        0.62022924423217773
      ],
      "min": [
        0.0098343491554260254,
        0.19786345958709717
      ],
      "type": "VEC2"
    },
    {
      "bufferView": 1,
      "byteOffset": 34272,
      "componentType": 5126,
      "count": 422,
      "max": [
        0.96593266725540161,
        0.62022924423217773
      ],
      "min": [
        0.0098343491554260254,
        0.19786345958709717
      ],
      "type": "VEC2"
    },
    {
      "bufferView": 1,
      "byteOffset": 37648,
      "componentType": 5126,
      "count": 422,
      "max": [
        0.96593266725540161,
        0.62022924423217773
      ],
      "min": [
        0.0098343491554260254,
        0.19786345958709717
      ],
      "type": "VEC2"
    },
    {
      "bufferView": 0,
      "byteOffset": 16128,
      "componentType": 5125,
      "count": 1668,
      "max": [
        421
      ],
      "min": [
        0
      ],
      "type": "SCALAR"
    },
    {
      "bufferView": 4,
      "componentType": 5126,
      "count": 24,
      "max": [
        0.79861104488372803
      ],
      "min": [
        0
      ],
      "type": "SCALAR"
    },
    {
      "bufferView": 5,
      "componentType": 5126,
      "count": 24,
      "max": [
        4.1184836097052369e-10,
        0,
        0.51399999856948853
      ],
      "min": [
        4.1184836097052369e-10,
        0,
        -5.9417853355407715
      ],
      "type": "VEC3"
    },
    {
      "bufferView": 4,
      "byteOffset": 96,
      "componentType": 5126,
      "count": 37,
      "max": [
        1.2162162065505981
      ],
      "min": [
        0
      ],
      "type": "SCALAR"
    },
    {
      "bufferView": 5,
      "byteOffset": 288,
      "componentType": 5126,
      "count": 37,
      "max": [
        4.1184836097052369e-10,
        0,
        0.51399999856948853
      ],
      "min": [
        4.1184836097052369e-10,
        0,
        -0.26479551196098328
      ],
      "type": "VEC3"
    }
  ],
  "animations": [
    {
      "channels": [
        {
          "sampler": 0,
          "target": {
            "node": 6,
            "path": "translation"
          }
        }
      ],
      "name": "Spear Trap_Shoot_Loop",
      "samplers": [
        {
          "input": 16,
          "interpolation": "LINEAR",
          "output": 17
        }
      ]
    },
    {
      "channels": [
        {
          "sampler": 0,
          "target": {
            "node": 6,
            "path": "translation"
          }
        }
      ],
      "name": "Spear Trap_Shoot_Loop",
      "samplers": [
        {
          "input": 18,
          "interpolation": "LINEAR",
          "output": 19
        }
      ]
    }
  ],
  "asset": {
    "extras": {
      "author": "RunemarkStudio (https://sketchfab.com/runemarkstudio)",
      "license": "CC-BY-4.0 (http://creativecommons.org/licenses/by/4.0/)",
      "source": "https://sketchfab.com/3d-models/spear-trap-animated-4b9d3d99f8b7424899ed89814d0c8419",
      "title": "Spear Trap (animated)"
    },
    "generator": "Sketchfab-5.12.0",
    "version": "2.0"
  },
  "bufferViews": [
    {
      "buffer": 0,
      "byteLength": 22800,
      "byteOffset": 0,
      "name": "floatBufferViews",
      "target": 34963
    },
    {
      "buffer": 0,
      "byteLength": 41024,
      "byteOffset": 22800,
      "byteStride": 8,
      "name": "floatBufferViews",
      "target": 34962
    },
    {
      "buffer": 0,
      "byteLength": 30768,
      "byteOffset": 63824,
      "byteStride": 12,
      "name": "floatBufferViews",
      "target": 34962
    },
    {
      "buffer": 0,
      "byteLength": 20512,
      "byteOffset": 94592,
      "byteStride": 16,
      "name": "floatBufferViews",
      "target": 34962
    },
    {
      "buffer": 0,
      "byteLength": 244,
      "byteOffset": 115104,
      "name": "floatBufferViews"
    },
    {
      "buffer": 0,
      "byteLength": 732,
      "byteOffset": 115348,
      "byteStride": 12,
      "name": "floatBufferViews"
    }
  ],
  "buffers": [
    {
      "byteLength": 116080,
      "uri": "scene.bin"
    }
  ],
  "images": [
    {
      "uri": "textures/Trap01_metallicRoughness.png"
    },
    {
      "uri": "textures/Trap01_normal.jpeg"
    },
    {
      "uri": "textures/Trap01_baseColor.jpeg"
    }
  ],
  "materials": [
    {
      "doubleSided": false,
      "emissiveFactor": [
        0,
        0,
        0
      ],
      "name": "Trap01",
      "normalTexture": {
        "index": 1,
        "scale": 1,
        "texCoord": 0
      },
      "pbrMetallicRoughness": {
        "baseColorFactor": [
          0.80000000000000004,
          0.80000000000000004,
          0.80000000000000004,
          1
        ],
        "baseColorTexture": {
          "index": 2,
          "texCoord": 0
        },
        "metallicFactor": 1,
        "metallicRoughnessTexture": {
          "index": 0,
          "texCoord": 0
        },
        "roughnessFactor": 1
      }
    }
  ],
  "meshes": [
    {
      "primitives": [
        {
          "attributes": {
            "NORMAL": 1,
            "POSITION": 0,
            "TANGENT": 2,
            "TEXCOORD_0": 3,
            "TEXCOORD_1": 4,
            "TEXCOORD_2": 5,
            "TEXCOORD_3": 6
          },
          "indices": 7,
          "material": 0,
          "mode": 4
        }
      ]
    },
    {
      "primitives": [
        {
          "attributes": {
            "NORMAL": 9,
            "POSITION": 8,
            "TANGENT": 10,
            "TEXCOORD_0": 11,
            "TEXCOORD_1": 12,
            "TEXCOORD_2": 13,
            "TEXCOORD_3": 14
          },
          "indices": 15,
          "material": 0,
          "mode": 4
        }
      ]
    }
  ],
  "nodes": [
    {
      "children": [
        1
      ],
      "name": "RootNode (gltf orientation matrix)",
      "rotation": [
        -0.70710678118654746,
        -0,
        -0,
        0.70710678118654757
      ]
    },
    {
      "children": [
        2
      ],
      "name": "RootNode (model correction matrix)"
    },
    {
      "children": [
        3
      ],
      "name": "root"
    },
    {
      "children": [
        4
      ],
      "matrix": [
        1,
        0,
        0,
        0,
        0,
        2.2204460492503131e-16,
        1,
        0,
        0,
        -1,
        2.2204460492503131e-16,
        0,
        0,
        0,
        0,
        1
      ],
      "name": "GLTF_SceneRootNode"
    },
    {
      "children": [
        5
      ],
      "name": "UnityGlTF_root_0"
    },
    {
      "children": [
        6,
        8
      ],
      "name": "node_Spear Trap_Shoot_Loop_-1764_2"
    },
    {
      "children": [
        7
      ],
      "name": "node_Spear_ammo_-1768_3",
      "rotation": [
        -0.7071068286895752,
        0,
        0,
        -0.70710670948028564
      ],
      "scale": [
        2,
        2,
        2
      ],
      "translation": [
        4.118483887260993e-10,
        0,
        0.50499999523162842
      ]
    },
    {
      "mesh": 0,
      "name": ""
    },
    {
      "children": [
        9
      ],
      "matrix": [
        2,
        -0,
        0,
        0,
        0,
        -3.37174793862971e-07,
        1.9999999999999716,
        0,
        -0,
        -1.9999999999999716,
        -3.37174793862971e-07,
        0,
        0,
        0,
        0,
        1
      ],
      "name": "node_SpearTrap_01_-1770_1"
    },
    {
      "mesh": 1,
      "name": ""
    }
  ],
  "samplers": [
    {
      "magFilter": 9729,
      "minFilter": 9987,
      "wrapS": 10497,
      "wrapT": 10497
    }
  ],
  "scene": 0,
  "scenes": [
    {
      "name": "OSG_Scene",
      "nodes": [
        0
      ]
    }
  ],
  "textures": [
    {
      "sampler": 0,
      "source": 0
    },
    {
      "sampler": 0,
      "source": 1
    },
    {
      "sampler": 0,
      "source": 2
    }
  ]
}

